<svg width="246" height="241" viewBox="0 0 246 241" fill="none" xmlns="http://www.w3.org/2000/svg">
<path d="M245.5 120.5C245.5 186.765 190.665 240.5 123 240.5C55.3354 240.5 0.5 186.765 0.5 120.5C0.5 54.2355 55.3354 0.5 123 0.5C190.665 0.5 245.5 54.2355 245.5 120.5Z" fill="#F6F4F0" stroke="#004AAD"/>
<path d="M188.4 162.9V165.15H147.9L147.75 162.9L155.7 158.1V106.2C155.7 103.5 155.7 101.4 155.7 99.9C155.7 98.4 155.65 97.25 155.55 96.45C155.55 95.55 155.5 94.95 155.4 94.65C155.3 94.25 155.15 93.8 154.95 93.3C154.35 91.5 152.9 90.25 150.6 89.55C148.3 88.85 145.9 88.75 143.4 89.25C141 89.65 138.8 90.7 136.8 92.4C134.8 94.1 133.75 96.55 133.65 99.75C133.75 101.25 133.8 103.25 133.8 105.75C133.9 108.25 133.95 111.7 133.95 116.1C133.95 120.5 133.95 126.1 133.95 132.9C133.95 139.6 133.95 148 133.95 158.1L141 162.9V165.15H100.5L100.35 162.9L108.3 158.1C108.3 156 108.3 153.05 108.3 149.25C108.3 145.35 108.3 141.1 108.3 136.5C108.4 131.9 108.4 127.2 108.3 122.4C108.3 117.5 108.25 113 108.15 108.9C108.15 104.8 108.1 101.35 108 98.55C107.9 95.65 107.75 93.9 107.55 93.3C106.95 91.6 105.65 90.4 103.65 89.7C101.65 88.9 99.5 88.65 97.2 88.95C94.9 89.25 92.7 90.1 90.6 91.5C88.6 92.8 87.25 94.65 86.55 97.05C86.55 102.75 86.55 109.1 86.55 116.1C86.65 123 86.7 129.6 86.7 135.9V158.1L93.75 162.9V165.15H53.25L53.1 162.9L61.05 158.1V86.1L54.15 81.6V79.35H67.05H81.6C85 79.35 86.7 81.05 86.7 84.45C86.7 85.25 86.7 85.8 86.7 86.1C86.7 86.4 86.65 86.75 86.55 87.15C86.55 87.55 86.55 88.1 86.55 88.8C86.55 89.4 86.55 90.45 86.55 91.95C89.35 87.65 92.9 84.7 97.2 83.1C101.6 81.5 106.35 80.7 111.45 80.7C116.85 80.7 121.4 81.65 125.1 83.55C128.8 85.45 131.35 89.05 132.75 94.35C133.15 92.85 134 91.3 135.3 89.7C136.7 88 138.45 86.5 140.55 85.2C142.75 83.9 145.35 82.85 148.35 82.05C151.35 81.15 154.8 80.7 158.7 80.7C164.3 80.7 168.95 81.7 172.65 83.7C176.35 85.6 178.85 89.25 180.15 94.65C180.35 95.45 180.5 96.35 180.6 97.35C180.8 98.25 180.95 99.55 181.05 101.25C181.15 102.95 181.2 105.15 181.2 107.85C181.2 110.55 181.2 114.1 181.2 118.5C181.3 122.9 181.35 128.35 181.35 134.85C181.35 141.25 181.35 149 181.35 158.1L188.4 162.9Z" fill="#004AAD"/>
</svg>
